<svg xmlns="http://www.w3.org/2000/svg" xmlns:xlink="http://www.w3.org/1999/xlink" version="1.1" id="Layer_1" x="0px" y="0px" viewBox="0 88.2750015258789 512 335.45001220703125" style="enable-background:new 0 0 512 512;" xml:space="preserve">
<path style="fill:#73AF00;" d="M473.655,88.275H38.345C17.167,88.275,0,105.442,0,126.62V385.38  c0,21.177,17.167,38.345,38.345,38.345h435.31c21.177,0,38.345-17.167,38.345-38.345V126.62  C512,105.442,494.833,88.275,473.655,88.275z"></path>
<path style="fill:#FFE15A;" d="M251.41,135.207L65.354,248.458c-5.651,3.439-5.651,11.641,0,15.081L251.41,376.792  c2.819,1.716,6.36,1.716,9.18,0l186.056-113.252c5.651-3.439,5.651-11.641,0-15.081L260.59,135.207  C257.771,133.492,254.229,133.492,251.41,135.207z"></path>
<circle style="fill:#41479B;" cx="256" cy="255.999" r="70.62"></circle>
<g>
	<path style="fill:#F5F5F5;" d="M195.4,219.872c-3.332,5.578-5.905,11.64-7.605,18.077c39.149-2.946,97.062,8.006,133.922,43.773   c2.406-6.141,3.995-12.683,4.59-19.522C288.247,...0.767,0.25-0.77l3.168-0.024l1.002-3.005C216.433,280.191,216.983,280.191,217.112,280.581z"></path>
	<path style="fill:#F5F5F5;" d="M294.903,295.313l0.631,1.891l1.993,0.015c0.258,0.002,0.365,0.331,0.158,0.484l-1.603,1.184   l0.601,1.9c0.077,0.246-0.202,0.449-0.413,0.299l-1.621-1.159l-1.622,1.159c-0.21,0.15-0.49-0.053-0.413-0.299l0.601-1.9   l-1.603-1.184c-0.207-0.153-0.1-0.482,0.158-0.484l1.993-0.015l0.63-1.891C294.475,295.068,294.822,295.068,294.903,295.313z"></path>
	<path style="fill:#F5F5F5;" d="M301.877,280.883l0.809,2.426l2.558,0.02c0.331,0.002,0.469,0.425,0.202,0.622l-2.058,1.519   l0.771,2.439c0.099,0.316-0.259,0.577-0.529,0.384l-2.081-1.487l-2.081,1.487c-0.269,0.193-0.629-0.068-0.529-0.384l0.771-2.439   l-2.058-1.519c-0.266-0.196-0.129-0.619,0.202-0.622l2.558-0.02l0.809-2.426C301.327,280.568,301.772,280.568,301.877,280.883z"></path>
</g>
<g>
</g>
<g>
</g>
<g>
</g>
<g>
</g>
<g>
</g>
<g>
</g>
<g>
</g>
<g>
</g>
<g>
</g>
<g>
</g>
<g>
</g>
<g>
</g>
<g>
</g>
<g>
</g>
<g>
</g>
</svg>